<?xml version="1.0" encoding="UTF-8"?>
<svg xmlns="http://www.w3.org/2000/svg" width="150" height="45" viewBox="0 0 150 45" fill="none">
  <g clip-path="url(#clip0_968_1106)">
    <path d="M39.0395 25.2666C39.0395 14.3873 30.2861 5.53741 19.5177 5.53741C8.74932 5.53741 0 14.3873 0 25.2666C0 36.146 8.75204 44.9959 19.5177 44.9959C25.1035 44.9959 30.1362 42.5962 33.703 38.7852L33.5586 42.1033C33.5 43.4677 34.5477 44.6228 35.9005 44.6806C35.9332 44.6861 35.9728 44.6861 36.0055 44.6861C37.3093 44.6861 38.3951 43.6411 38.4455 42.3125L39.0395 28.3795C39.0504 28.0753 38.9905 27.7862 38.906 27.5163C38.9864 26.7756 39.0395 26.0253 39.0395 25.2666ZM19.5177 40.0491C11.455 40.0491 4.89237 33.4186 4.89237 25.2653C4.89237 17.112 11.4537 10.4787 19.5177 10.4787C27.5817 10.4787 34.1458 17.1147 34.1458 25.2653C34.1458 33.4158 27.5845 40.0491 19.5177 40.0491Z" fill="#0070B3"></path>
    <path d="M49.3326 8.97109C49.7386 9.42129 50.0478 9.94585 50.2658 10.5585C50.492 11.1629 50.5955 11.7935 50.5955 12.4447C50.5955 13.173 50.4579 13.8642 50.1772 14.5154C49.8993 15.1707 49.5233 15.738 49.041 16.2198C48.5614 16.7058 47.9947 17.1051 47.338 17.4094C46.6786 17.7164 45.9702 17.8761 45.2154 17.8981L41.4783 17.8899C41.0846 17.8899 40.7535 17.7425 40.4756 17.4562C40.2004 17.167 40.0669 16.8366 40.0669 16.4635C40.0669 16.067 40.2004 15.7338 40.4674 15.453C40.7358 15.1721 41.0751 15.0248 41.4797 15.0055L45.4402 15.0124C46.086 15.0124 46.6296 14.7907 47.0805 14.3447C47.5192 13.8958 47.7426 13.3479 47.7426 12.6939C47.7426 12.0399 47.5219 11.525 47.086 11.0982C46.6405 10.6659 46.0955 10.4291 45.4511 10.3961L42.3189 10.3905C41.9497 10.3905 41.6214 10.2542 41.3339 9.98164C41.0519 9.71179 40.9061 9.37173 40.9061 8.95732C40.9061 8.58697 41.0396 8.24828 41.3094 7.94952C41.5764 7.65076 41.917 7.49793 42.3217 7.47728L45.4552 7.48141C45.7467 7.48141 46.0342 7.42772 46.3108 7.31345C46.5901 7.20468 46.838 7.04773 47.0505 6.83983C47.2644 6.63745 47.4361 6.39927 47.5642 6.12942C47.6922 5.86095 47.7549 5.5553 47.759 5.21937C47.759 4.5654 47.5342 4.01331 47.0955 3.56723C46.6514 3.11427 46.1064 2.88848 45.4634 2.88848L41.5029 2.8816C41.1296 2.8816 40.804 2.74392 40.5178 2.46443C40.2304 2.18357 40.0901 1.84901 40.0901 1.45663C40.0901 1.06425 40.2263 0.721432 40.5056 0.433685C40.7849 0.141808 41.1132 0 41.5056 0L45.2454 0.00688389C45.9634 0.0234052 46.6459 0.176228 47.2958 0.45709C47.9361 0.740707 48.5056 1.1207 48.9974 1.60808C49.4852 2.09408 49.8762 2.66957 50.1732 3.33043C50.4661 3.99403 50.6132 4.69757 50.6064 5.44791C50.6064 6.19275 50.4783 6.87563 50.2181 7.4883C50.1105 7.74851 49.9783 8.00597 49.8407 8.25929C49.7059 8.51262 49.5342 8.7508 49.3326 8.97246V8.97109Z" fill="#0070B3"></path>
    <path d="M62.8268 12.9541C62.3159 12.4791 61.9589 11.9931 61.7559 11.4947C61.5516 10.9963 61.4508 10.4676 61.4508 9.91003C61.4508 9.22577 61.5788 8.60622 61.8336 8.05276C62.0897 7.49792 62.4657 7.00365 62.963 6.57135H62.9521C63.7464 5.87332 64.6783 5.52499 65.7491 5.52499C66.0938 5.52499 66.4399 5.56905 66.7845 5.65579C67.1292 5.7439 67.463 5.87607 67.7832 6.05368C68.1033 6.23128 68.4044 6.45294 68.6837 6.71866C68.963 6.98438 69.2137 7.29415 69.4344 7.65074C69.5379 7.83247 69.5897 8.03073 69.5897 8.24688C69.5897 8.40797 69.5625 8.55391 69.5066 8.68608C69.4508 8.81825 69.3731 8.93527 69.2736 9.03715C69.1728 9.13766 69.0557 9.21614 68.9221 9.27258C68.7873 9.32903 68.6442 9.35657 68.4916 9.35657C68.354 9.35657 68.23 9.33592 68.1238 9.29324C68.0175 9.25056 67.9208 9.19273 67.8336 9.11563C67.7464 9.03853 67.6647 8.94904 67.5856 8.84854C67.5066 8.74665 67.4221 8.63101 67.3322 8.49746C67.166 8.25377 66.9412 8.07066 66.6538 7.94812C66.3663 7.82559 66.0584 7.76501 65.7273 7.76501C65.4644 7.76501 65.2096 7.81871 64.9617 7.92747C64.7137 8.03486 64.4916 8.18355 64.2995 8.37217C64.1074 8.56079 63.948 8.78383 63.8281 9.04129C63.7069 9.29874 63.6469 9.57823 63.6469 9.87837C63.6469 10.4153 63.7941 10.8394 64.087 11.1505C64.3799 11.4603 64.8854 11.7205 65.6033 11.9298C66.8186 12.2781 67.7709 12.76 68.4617 13.374C69.1524 13.988 69.6211 14.5925 69.8704 15.1845C70.1183 15.7779 70.2437 16.4015 70.2437 17.0569C70.2437 18.6897 69.6469 20.0156 68.4521 21.033H68.4617C67.5025 21.8563 66.4112 22.268 65.1892 22.268C64.7818 22.268 64.3745 22.2171 63.9685 22.1165C63.5611 22.0147 63.1687 21.8674 62.7927 21.6718C62.4167 21.4763 62.0638 21.2313 61.7369 20.938C61.4085 20.6448 61.1238 20.3143 60.8826 19.944C60.7382 19.7554 60.666 19.5323 60.666 19.2749C60.666 19.1221 60.6933 18.9761 60.7491 18.8398C60.805 18.7035 60.8826 18.5851 60.9821 18.4846C61.0815 18.3841 61.1974 18.3056 61.3295 18.2492C61.4617 18.1927 61.6061 18.1652 61.7641 18.1652C62.1715 18.1652 62.4794 18.3359 62.6864 18.6774C62.9766 19.1317 63.339 19.4731 63.7736 19.7031C64.2082 19.933 64.6783 20.0486 65.1824 20.0486C65.5761 20.0486 65.9467 19.9701 66.2954 19.8132C66.6442 19.6562 66.948 19.4456 67.2069 19.1799C67.4657 18.9155 67.6715 18.603 67.8227 18.2437C67.9739 17.8843 68.0502 17.5016 68.0502 17.0982C68.0502 16.7141 67.9794 16.3534 67.8377 16.0147C67.696 15.676 67.4235 15.3414 67.0202 15.0096C66.6156 14.6792 65.9753 14.3804 65.0993 14.1147C64.0979 13.816 63.3418 13.4277 62.8309 12.9527L62.8268 12.9541Z" fill="#666666"></path>
    <path d="M74.6322 8.46441C74.6322 8.821 74.5082 9.12389 74.2589 9.37584C74.0109 9.62641 73.7098 9.75308 73.3583 9.75308C73.0068 9.75308 72.7057 9.62779 72.4578 9.37584C72.2098 9.12389 72.0845 8.821 72.0845 8.46441C72.0845 8.10783 72.2085 7.80493 72.4578 7.55436C72.7071 7.30379 73.0068 7.17712 73.3583 7.17712C73.7098 7.17712 74.0109 7.30241 74.2589 7.55436C74.5068 7.80493 74.6322 8.1092 74.6322 8.46441ZM72.282 21.1693V11.6448C72.282 11.3377 72.3869 11.0789 72.5981 10.8655C72.8093 10.6535 73.0627 10.5461 73.3597 10.5461C73.6567 10.5461 73.9101 10.6521 74.1213 10.8655C74.3311 11.0789 74.4401 11.3391 74.4482 11.6448V21.1693C74.4401 21.4763 74.3324 21.7352 74.1213 21.9486C73.9101 22.1606 73.6567 22.268 73.3597 22.268C73.0627 22.268 72.8093 22.162 72.5981 21.9486C72.3869 21.7352 72.282 21.4763 72.282 21.1693Z" fill="#666666"></path>
    <path d="M78.7861 16.6907C78.1376 16.4401 77.6812 16.1813 77.4196 15.9155H77.4305C76.906 15.3786 76.6431 14.7467 76.6431 14.0211C76.6431 13.491 76.782 13.0119 77.0627 12.5824C77.342 12.1542 77.7071 11.7893 78.1553 11.4892C78.6049 11.1891 79.1104 10.9564 79.673 10.7939C80.2357 10.6301 80.7997 10.5475 81.3665 10.5475C83.0927 10.5475 84.5736 11.2496 85.8093 12.6512C85.9537 12.8329 86.0259 13.0532 86.0259 13.3107C86.0259 13.6246 85.9237 13.8848 85.7207 14.0899C85.5164 14.2965 85.2602 14.3983 84.9482 14.3983C84.7275 14.3983 84.5395 14.335 84.3842 14.2097C84.2289 14.0844 84.079 13.9481 83.9346 13.8022C83.2303 13.0904 82.3747 12.7338 81.3665 12.7338C80.3583 12.7338 79.5777 13.0408 78.9837 13.6549C78.8733 13.7678 78.8175 13.9206 78.8175 14.1147C78.8175 14.3088 78.9074 14.4438 79.0872 14.5126L83.9333 16.1234C84.6104 16.3892 85.0654 16.648 85.2997 16.8986H85.2888C85.8134 17.4355 86.0763 18.0674 86.0763 18.793C86.0763 19.33 85.936 19.8118 85.6567 20.2373C85.3774 20.6627 85.0123 21.0275 84.564 21.3304C84.1158 21.6347 83.6117 21.866 83.0518 22.0257C82.4932 22.1868 81.9305 22.2666 81.3638 22.2666C79.624 22.2666 78.1431 21.5727 76.921 20.1836C76.7698 19.9825 76.6935 19.7554 76.6935 19.5034C76.6935 19.1895 76.7957 18.9293 76.9987 18.7242C77.2016 18.5177 77.4591 18.4158 77.7698 18.4158C77.9973 18.4158 78.1908 18.4832 78.3502 18.6195C78.5096 18.7558 78.654 18.8853 78.7848 19.0119C79.4891 19.7237 80.3488 20.0803 81.3638 20.0803C82.3788 20.0803 83.1444 19.7664 83.7452 19.1372C83.8488 19.0188 83.9006 18.8756 83.9006 18.709C83.9006 18.5135 83.8079 18.3786 83.6213 18.3001L78.7848 16.6893L78.7861 16.6907Z" fill="#666666"></path>
    <path d="M88.6644 10.5461H89.1508V6.61128C89.1508 6.31114 89.2557 6.05506 89.4669 5.84166C89.678 5.62826 89.9342 5.52225 90.238 5.52225C90.5418 5.52225 90.7884 5.62826 90.9996 5.84166C91.2094 6.05506 91.3156 6.31114 91.3156 6.61128V10.5461H92.6099C92.9069 10.5461 93.159 10.6521 93.3661 10.8655C93.5731 11.0789 93.6767 11.335 93.6767 11.6351C93.6767 11.9353 93.5731 12.2024 93.3661 12.4144C93.159 12.6278 92.9069 12.7338 92.6099 12.7338H91.3156V17.9986C91.3156 19.3864 92.0064 20.0817 93.3865 20.0817C93.6835 20.0817 93.9355 20.1877 94.1426 20.4011C94.3497 20.6131 94.4532 20.8706 94.4532 21.1707C94.4532 21.4708 94.3497 21.7366 94.1426 21.95C93.9355 22.162 93.6835 22.2694 93.3865 22.2694C90.5622 22.2694 89.1508 20.8458 89.1508 18V12.7352H88.6644C88.3742 12.7352 88.1235 12.6292 87.9137 12.4158C87.7026 12.2038 87.5977 11.9435 87.5977 11.6365C87.5977 11.3295 87.7026 11.0803 87.9137 10.8669C88.1235 10.6549 88.3742 10.5475 88.6644 10.5475V10.5461Z" fill="#666666"></path>
    <path d="M104.147 18.9706C104.458 18.9706 104.714 19.0739 104.918 19.279C105.123 19.4855 105.225 19.7457 105.225 20.0583C105.225 20.3708 105.121 20.6269 104.914 20.843C103.845 21.7916 102.58 22.2666 101.124 22.2666C99.5218 22.2666 98.1553 21.6939 97.0231 20.5498C95.891 19.4057 95.3242 18.0248 95.3242 16.4057C95.3242 14.7866 95.891 13.4057 97.0231 12.2616C98.1553 11.1175 99.5218 10.5447 101.124 10.5447C102.726 10.5447 104.079 11.1175 105.225 12.2616C105.792 12.8261 106.215 13.4566 106.499 14.1505C106.782 14.8444 106.924 15.5961 106.924 16.4057C106.924 16.7196 106.819 16.9798 106.608 17.1849C106.396 17.3915 106.14 17.4933 105.836 17.4933H97.6348C97.752 17.8775 97.925 18.2272 98.1526 18.5452C98.3801 18.8632 98.6471 19.1345 98.955 19.3616C99.2629 19.5888 99.6008 19.765 99.97 19.8903C100.339 20.0156 100.725 20.0789 101.125 20.0789C101.58 20.0789 101.999 20.0087 102.379 19.8697C102.759 19.7306 103.11 19.5213 103.435 19.2418C103.642 19.067 103.88 18.9761 104.15 18.9692L104.147 18.9706ZM104.613 15.3194C104.496 14.9353 104.321 14.5856 104.09 14.2675C103.858 13.9495 103.59 13.6783 103.283 13.4511C102.975 13.2239 102.638 13.0477 102.268 12.9224C101.899 12.7971 101.518 12.7338 101.125 12.7338C100.733 12.7338 100.349 12.7971 99.9754 12.9224C99.6021 13.0477 99.2615 13.2239 98.9496 13.4511C98.6389 13.6769 98.3692 13.9495 98.143 14.2675C97.9141 14.5842 97.7452 14.9353 97.6348 15.3194H104.614H104.613Z" fill="#666666"></path>
    <path d="M124.952 21.1693C124.952 21.4764 124.847 21.7352 124.636 21.9486C124.426 22.1606 124.171 22.268 123.876 22.268C123.58 22.268 123.317 22.162 123.11 21.9486C122.903 21.7352 122.799 21.4764 122.799 21.1693V15.2148C122.799 14.8802 122.735 14.5622 122.607 14.2634C122.481 13.9633 122.306 13.6989 122.085 13.4731C121.865 13.246 121.603 13.067 121.303 12.9335C121.004 12.8013 120.679 12.7338 120.336 12.7338C119.993 12.7338 119.679 12.7999 119.384 12.9335C119.087 13.0656 118.825 13.2446 118.602 13.4676C118.377 13.6907 118.201 13.9523 118.073 14.2524C117.945 14.5525 117.881 14.8733 117.881 15.2148V21.1693C117.881 21.4764 117.776 21.7352 117.566 21.9486C117.355 22.1606 117.102 22.268 116.805 22.268C116.508 22.268 116.243 22.162 116.034 21.9486C115.823 21.7352 115.718 21.4764 115.718 21.1693V15.2148C115.718 14.8733 115.652 14.5525 115.52 14.2524C115.389 13.9523 115.212 13.6907 114.993 13.4676C114.771 13.2446 114.512 13.0656 114.216 12.9335C113.919 12.8013 113.602 12.7338 113.264 12.7338C112.926 12.7338 112.607 12.7985 112.312 12.9279C112.015 13.0574 111.753 13.235 111.53 13.4608C111.305 13.6879 111.129 13.9509 111.001 14.251C110.873 14.5512 110.809 14.872 110.809 15.2134V21.168C110.809 21.475 110.704 21.7338 110.493 21.9472C110.282 22.1592 110.028 22.2666 109.731 22.2666C109.434 22.2666 109.17 22.1606 108.96 21.9472C108.75 21.7338 108.644 21.475 108.644 21.168V11.6338C108.644 11.3336 108.749 11.0776 108.96 10.8642C109.17 10.6521 109.425 10.5447 109.72 10.5447C109.963 10.5447 110.175 10.6122 110.363 10.7485C110.549 10.8848 110.677 11.0638 110.746 11.2882C111.485 10.7926 112.324 10.5447 113.263 10.5447C113.953 10.5447 114.602 10.6824 115.209 10.9578C115.817 11.2331 116.348 11.6503 116.803 12.2079C117.764 11.0982 118.94 10.5434 120.336 10.5434C120.964 10.5434 121.558 10.6673 122.122 10.9151C122.685 11.1629 123.174 11.4975 123.592 11.9201C124.011 12.3414 124.342 12.8371 124.587 13.4057C124.832 13.9743 124.955 14.5759 124.955 15.2106V21.1652L124.952 21.1693Z" fill="#666666"></path>
    <path d="M136.241 21.179V20.9697C135.722 21.3882 135.16 21.709 134.553 21.9321C133.945 22.1551 133.297 22.2666 132.606 22.2666C131.004 22.2666 129.637 21.6939 128.505 20.5498C127.373 19.4057 126.806 18.0248 126.806 16.4057C126.806 14.7866 127.373 13.4057 128.505 12.2616C129.637 11.1175 131.004 10.5447 132.606 10.5447C134.208 10.5447 135.561 11.1175 136.707 12.2616C137.839 13.4057 138.406 14.7866 138.406 16.4057V21.1776C138.406 21.4777 138.301 21.7338 138.09 21.9472C137.878 22.1592 137.625 22.2666 137.329 22.2666C137.034 22.2666 136.768 22.1606 136.557 21.9472C136.346 21.7338 136.242 21.4777 136.242 21.1776L136.241 21.179ZM132.606 12.7338C132.095 12.7338 131.618 12.8316 131.177 13.0271C130.735 13.2226 130.352 13.4869 130.028 13.8173C129.703 14.1491 129.445 14.5374 129.256 14.9848C129.066 15.4309 128.971 15.9059 128.971 16.4084C128.971 16.911 129.066 17.3846 129.256 17.832C129.445 18.2781 129.703 18.6677 130.028 18.9995C130.352 19.33 130.735 19.5943 131.177 19.7898C131.618 19.9853 132.095 20.0831 132.606 20.0831C133.117 20.0831 133.583 19.9853 134.024 19.7898C134.466 19.5943 134.851 19.33 135.179 18.994C135.506 18.6595 135.765 18.2698 135.956 17.8265C136.145 17.3832 136.241 16.911 136.241 16.4084C136.241 15.9059 136.145 15.4337 135.956 14.9904C135.765 14.547 135.506 14.1588 135.179 13.8228C134.852 13.4883 134.467 13.2239 134.024 13.0271C133.583 12.8329 133.109 12.7338 132.606 12.7338Z" fill="#666666"></path>
    <path d="M142.174 16.6907C141.526 16.4401 141.069 16.1813 140.808 15.9155H140.817C140.293 15.3786 140.03 14.7467 140.03 14.0211C140.03 13.491 140.169 13.0119 140.449 12.5824C140.729 12.1542 141.094 11.7893 141.543 11.4892C141.992 11.1891 142.497 10.9564 143.06 10.7939C143.622 10.6301 144.186 10.5475 144.753 10.5475C146.479 10.5475 147.96 11.2496 149.196 12.6512C149.342 12.8329 149.414 13.0532 149.414 13.3107C149.414 13.6246 149.31 13.8848 149.107 14.0899C148.904 14.2965 148.647 14.3983 148.336 14.3983C148.114 14.3983 147.928 14.335 147.771 14.2097C147.614 14.0844 147.466 13.9481 147.32 13.8022C146.616 13.0904 145.76 12.7338 144.752 12.7338C143.744 12.7338 142.963 13.0408 142.37 13.6549C142.259 13.7678 142.204 13.9206 142.204 14.1147C142.204 14.3088 142.293 14.4438 142.473 14.5126L147.319 16.1234C147.996 16.3892 148.451 16.648 148.685 16.8986H148.676C149.2 17.4355 149.463 18.0674 149.463 18.793C149.463 19.33 149.323 19.8118 149.043 20.2373C148.764 20.6627 148.399 21.0275 147.949 21.3304C147.501 21.6347 146.997 21.866 146.439 22.0257C145.879 22.1868 145.316 22.2666 144.75 22.2666C143.011 22.2666 141.53 21.5727 140.308 20.1836C140.156 19.9825 140.079 19.7554 140.079 19.5034C140.079 19.1895 140.181 18.9293 140.385 18.7242C140.588 18.5177 140.846 18.4158 141.156 18.4158C141.385 18.4158 141.579 18.4832 141.737 18.6195C141.896 18.7558 142.041 18.8853 142.173 19.0119C142.877 19.7237 143.737 20.0803 144.75 20.0803C145.764 20.0803 146.531 19.7664 147.133 19.1372C147.237 19.0188 147.287 18.8756 147.287 18.709C147.287 18.5135 147.195 18.3786 147.008 18.3001L142.171 16.6893L142.174 16.6907Z" fill="#666666"></path>
    <path d="M71.4029 43.7788V43.5447C70.8225 44.0142 70.1917 44.3736 69.5105 44.6241C68.8293 44.8747 68.1018 45 67.3279 45C65.5323 45 63.9996 44.3584 62.7298 43.0753C61.4601 41.7921 60.8252 40.2432 60.8252 38.4286C60.8252 36.614 61.4601 35.0652 62.7298 33.782C63.9996 32.4988 65.5323 31.8573 67.3279 31.8573C69.1236 31.8573 70.6413 32.4988 71.926 33.782C73.1958 35.0652 73.8306 36.614 73.8306 38.4286V43.7788C73.8306 44.1147 73.7121 44.4025 73.4764 44.642C73.2394 44.8802 72.956 45 72.6222 45C72.2884 45 71.9928 44.8802 71.7571 44.642C71.52 44.4039 71.4029 44.1161 71.4029 43.7788ZM67.3279 34.3093C66.7544 34.3093 66.2203 34.4195 65.7257 34.6384C65.2298 34.8573 64.8007 35.1533 64.4369 35.525C64.0732 35.8967 63.7857 36.3332 63.5718 36.8329C63.3593 37.3327 63.253 37.8655 63.253 38.4286C63.253 38.9917 63.3593 39.5245 63.5718 40.0243C63.7857 40.5241 64.0732 40.9605 64.4369 41.3323C64.8007 41.704 65.2298 41.9986 65.7257 42.2189C66.2203 42.4378 66.7557 42.548 67.3279 42.548C67.9001 42.548 68.4233 42.4378 68.9192 42.2189C69.4138 42 69.8456 41.7026 70.2135 41.3268C70.5813 40.9509 70.8715 40.5145 71.0841 40.0188C71.2966 39.5218 71.4029 38.9917 71.4029 38.4286C71.4029 37.8655 71.2966 37.3355 71.0841 36.8385C70.8702 36.3414 70.5813 35.905 70.2135 35.5305C69.8456 35.1547 69.4138 34.8586 68.9192 34.6384C68.4233 34.4195 67.8933 34.3093 67.3279 34.3093Z" fill="#666666"></path>
    <path d="M75.6293 27.4695C75.6293 27.1253 75.7492 26.832 75.989 26.5897C76.2288 26.3474 76.5189 26.2262 76.8595 26.2262C77.2001 26.2262 77.4903 26.3474 77.7301 26.5897C77.9699 26.832 78.0898 27.1253 78.0898 27.4695V34.4153L85.8119 26.6117C86.0666 26.3543 86.365 26.2249 86.7056 26.2249C86.8745 26.2249 87.0367 26.2565 87.1865 26.3185C87.3377 26.3818 87.4699 26.4699 87.5816 26.5828C87.6933 26.6957 87.7805 26.8293 87.8432 26.9821C87.9059 27.1349 87.9358 27.2974 87.9358 27.4695C87.9358 27.8137 87.8159 28.1069 87.5762 28.3492L81.4917 34.5103L87.7029 43.0174C87.8582 43.2363 87.9345 43.4704 87.9345 43.721C87.9345 43.8848 87.9031 44.0445 87.8418 44.2014C87.7805 44.3584 87.6947 44.4947 87.5871 44.6131C87.4781 44.7301 87.35 44.8238 87.2042 44.8953C87.0571 44.9656 86.8991 45 86.7274 45C86.271 45 85.9263 44.8238 85.6947 44.4727L79.726 36.2946L78.0884 37.9495V43.7568C78.0884 44.1009 77.9685 44.3942 77.7288 44.6365C77.489 44.8788 77.1988 45 76.8582 45C76.5176 45 76.2274 44.8788 75.9876 44.6365C75.7478 44.3942 75.6279 44.1009 75.6279 43.7568V27.4708L75.6293 27.4695Z" fill="#666666"></path>
    <path d="M100.512 45C100.163 45 99.8773 44.883 99.6525 44.6475C99.4277 44.4135 99.3119 44.1271 99.3037 43.7912C98.7697 44.2138 98.2043 44.5209 97.6089 44.7122C97.0122 44.9036 96.3664 45 95.6702 45C94.8419 45 94.0598 44.8375 93.3241 44.5126C92.5885 44.1891 91.9468 43.7485 91.3977 43.1923C90.8473 42.636 90.4127 41.9876 90.0912 41.2441C89.7697 40.5007 89.6089 39.7118 89.6089 38.8733V33.0771C89.6089 32.7411 89.7274 32.4534 89.9631 32.2138C90.1988 31.9757 90.4876 31.8559 90.8282 31.8559C91.1688 31.8559 91.4454 31.9757 91.6825 32.2138C91.9182 32.4534 92.0367 32.7398 92.0367 33.0771V38.8733C92.0367 39.3813 92.1321 39.8591 92.3214 40.3052C92.5108 40.7512 92.771 41.1409 93.0993 41.4727C93.4277 41.8045 93.8133 42.0674 94.2547 42.2588C94.6961 42.4516 95.1688 42.5466 95.6716 42.5466C96.1743 42.5466 96.6348 42.4502 97.0762 42.2588C97.5176 42.0674 97.9045 41.8031 98.237 41.4672C98.5694 41.1299 98.831 40.7416 99.0203 40.2997C99.2097 39.8577 99.3051 39.3827 99.3051 38.8733V33.0771C99.3051 32.7411 99.4236 32.4534 99.6593 32.2138C99.895 31.9757 100.184 31.8559 100.524 31.8559C100.865 31.8559 101.142 31.9757 101.379 32.2138C101.614 32.4534 101.733 32.7398 101.733 33.0771V43.7788C101.733 44.1147 101.614 44.4025 101.379 44.642C101.143 44.8816 100.854 45 100.514 45H100.512ZM97.9808 28.3258L95.6579 30.6608C95.4413 30.8797 95.1634 30.9899 94.8214 30.9899C94.4795 30.9899 94.1838 30.8742 93.9563 30.6429C93.7274 30.413 93.613 30.1211 93.613 29.7687C93.613 29.4162 93.7138 29.1546 93.9154 28.9357L96.2383 26.6007C96.4863 26.3584 96.7724 26.2372 97.098 26.2372C97.4468 26.2372 97.7356 26.357 97.9631 26.5952C98.192 26.8334 98.3064 27.1253 98.3064 27.4695C98.3064 27.8137 98.1974 28.1069 97.9808 28.3258Z" fill="#666666"></path>
    <path d="M105.982 33.3125C107.135 32.3433 108.494 31.8573 110.057 31.8573C111.838 31.8573 113.37 32.4988 114.655 33.782C115.289 34.4153 115.765 35.1216 116.084 35.8995C116.4 36.6787 116.56 37.5213 116.56 38.4286C116.56 40.2597 115.925 41.8086 114.655 43.0752C113.37 44.3584 111.838 45 110.057 45C108.276 45 106.729 44.3584 105.459 43.0752C104.189 41.7921 103.554 40.2432 103.554 38.4286V27.4461C103.554 27.0936 103.669 26.8031 103.898 26.5718C104.125 26.3405 104.414 26.2249 104.763 26.2249C105.111 26.2249 105.392 26.3405 105.628 26.5718C105.865 26.8031 105.982 27.0936 105.982 27.4461V33.3125ZM110.057 42.5479C110.622 42.5479 111.152 42.4378 111.648 42.2189C112.143 42 112.575 41.7026 112.942 41.3267C113.31 40.9509 113.601 40.5144 113.813 40.0188C114.027 39.5218 114.133 38.9917 114.133 38.4286C114.133 37.8655 114.027 37.3355 113.813 36.8384C113.599 36.3414 113.31 35.905 112.942 35.5305C112.575 35.156 112.143 34.8586 111.648 34.6383C111.152 34.4194 110.622 34.3093 110.057 34.3093C109.492 34.3093 108.949 34.4194 108.455 34.6383C107.959 34.8573 107.53 35.1533 107.166 35.525C106.802 35.8967 106.515 36.3332 106.301 36.8329C106.088 37.3327 105.982 37.8655 105.982 38.4286C105.982 38.9917 106.088 39.5245 106.301 40.0243C106.515 40.5241 106.802 40.9605 107.166 41.3322C107.53 41.704 107.959 41.9986 108.455 42.2189C108.949 42.4378 109.485 42.5479 110.057 42.5479Z" fill="#666666"></path>
    <path d="M121.704 29.5222C121.704 29.9215 121.565 30.2616 121.286 30.5438C121.006 30.8261 120.67 30.9665 120.275 30.9665C119.88 30.9665 119.543 30.8261 119.264 30.5438C118.985 30.2616 118.846 29.9229 118.846 29.5222C118.846 29.1216 118.985 28.7829 119.264 28.502C119.543 28.2212 119.878 28.0794 120.275 28.0794C120.671 28.0794 121.006 28.2198 121.286 28.502C121.565 28.7843 121.704 29.1244 121.704 29.5222ZM119.068 43.7678V33.0895C119.068 32.7453 119.186 32.4548 119.422 32.2152C119.658 31.977 119.942 31.8573 120.276 31.8573C120.61 31.8573 120.892 31.977 121.13 32.2152C121.366 32.4548 121.489 32.7453 121.496 33.0895V43.7678C121.487 44.112 121.366 44.4038 121.13 44.642C120.893 44.8802 120.61 45 120.276 45C119.942 45 119.659 44.8802 119.422 44.642C119.185 44.4038 119.068 44.112 119.068 43.7678Z" fill="#666666"></path>
    <path d="M133.884 41.2799C134.231 41.2799 134.52 41.3956 134.749 41.6255C134.978 41.8568 135.092 42.1473 135.092 42.4998C135.092 42.8522 134.964 43.1455 134.709 43.4029C133.509 44.4672 132.096 44.9986 130.471 44.9986C128.675 44.9986 127.143 44.357 125.873 43.0739C124.604 41.7907 123.968 40.2418 123.968 38.4273C123.968 36.6127 124.603 35.0638 125.873 33.7806C127.143 32.4975 128.675 31.8559 130.471 31.8559C132.104 31.8559 133.517 32.3887 134.709 33.4516C134.989 33.7022 135.128 34.0106 135.128 34.3795C135.128 34.7485 135.012 35.0252 134.784 35.2593C134.555 35.4933 134.267 35.6117 133.919 35.6117C133.624 35.6117 133.362 35.5181 133.129 35.3295C132.734 34.9936 132.32 34.7389 131.887 34.5668C131.452 34.3947 130.981 34.3079 130.47 34.3079C129.904 34.3079 129.376 34.4153 128.88 34.6301C128.384 34.8463 127.951 35.1381 127.579 35.5099C127.207 35.8816 126.915 36.3167 126.703 36.8178C126.489 37.3176 126.382 37.8545 126.382 38.4245C126.382 38.9945 126.489 39.5314 126.703 40.0312C126.915 40.5324 127.207 40.9688 127.579 41.3391C127.951 41.7109 128.384 42.0041 128.88 42.2189C129.376 42.4337 129.906 42.5411 130.47 42.5411C130.981 42.5411 131.452 42.4571 131.887 42.2891C132.32 42.1212 132.73 41.8692 133.117 41.5319C133.333 41.3681 133.588 41.2813 133.884 41.2744V41.2799Z" fill="#666666"></path>
    <path d="M147.573 43.7788V43.5447C146.992 44.0142 146.361 44.3736 145.681 44.6241C145 44.8747 144.271 45 143.498 45C141.703 45 140.17 44.3584 138.9 43.0753C137.63 41.7921 136.996 40.2432 136.996 38.4286C136.996 36.614 137.629 35.0652 138.9 33.782C140.169 32.4988 141.701 31.8573 143.498 31.8573C145.295 31.8573 146.81 32.4988 148.096 33.782C149.365 35.0652 150.001 36.614 150.001 38.4286V43.7788C150.001 44.1147 149.883 44.4025 149.647 44.642C149.41 44.8802 149.126 45 148.793 45C148.459 45 148.163 44.8802 147.927 44.642C147.69 44.4039 147.573 44.1161 147.573 43.7788ZM143.497 34.3093C142.923 34.3093 142.389 34.4195 141.893 34.6384C141.399 34.8573 140.968 35.1533 140.606 35.525C140.242 35.8967 139.953 36.3332 139.739 36.8329C139.527 37.3327 139.421 37.8655 139.421 38.4286C139.421 38.9917 139.527 39.5245 139.739 40.0243C139.953 40.5241 140.242 40.9605 140.606 41.3323C140.968 41.704 141.399 41.9986 141.893 42.2189C142.389 42.4378 142.923 42.548 143.497 42.548C144.071 42.548 144.591 42.4378 145.087 42.2189C145.583 42 146.013 41.7026 146.381 41.3268C146.749 40.9509 147.039 40.5145 147.252 40.0188C147.464 39.5232 147.572 38.9917 147.572 38.4286C147.572 37.8655 147.466 37.3355 147.252 36.8385C147.038 36.3414 146.749 35.905 146.381 35.5305C146.013 35.1547 145.583 34.8586 145.087 34.6384C144.591 34.4195 144.061 34.3093 143.497 34.3093Z" fill="#666666"></path>
  </g>
  <defs>
    <clipPath id="clip0_968_1106">
      <rect width="150" height="45" fill="white"></rect>
    </clipPath>
  </defs>
</svg>
